# xmcd
#
# Track frame offsets:
#	150
#	8775
#	20061
#	34593
#	48386
#	65059
#	74593
#	83269
#	97591
#	111570
#	125033
#	135898
#	147283
#	159874
#	171272
#	184899
#	197382
#	218404
#	229783
#	239976
#	252204
#	265148
#
# Disc length: 3665 seconds
#
# Revision: 1
# Processed by: cddbd v1.5.1PL2 Copyright (c) Steve Scherf et al.
# Submitted via: audiograbber 1.81.02
#
DISCID=2f0e4f16
DTITLE=Various Artist - VIV MEXICO CABRONES
DYEAR=1900
DGENRE=Mexican Country
TTITLE0=INTRO MIX
TTITLE1=JARABE TAPATIO
TTITLE2=MEXICO LINDO
TTITLE3=MI CIUDAD
TTITLE4=EL MARIACHI
TTITLE5=CANCION DEL MARIACHI
TTITLE6=VIVA MEXICO
TTITLE7=GUADALAJARA
TTITLE8=CIELITO LINDO
TTITLE9=EL SON DE LA NEGRA
TTITLE10=LA RASPA
TTITLE11=LAS HAZANAS
TTITLE12=LAS PERLITAS
TTITLE13=LA BIKINA
TTITLE14=FLOR DE MEXICO
TTITLE15=JESUSITA EN MEXICO
TTITLE16=POPURRI (LOS TOROS)
TTITLE17=QUE CHULA ES PUEBLA
TTITLE18=ATOTONILCO
TTITLE19=LAS BICICLETAS
TTITLE20=MARIQUITA
TTITLE21=HIMNO NACIONAL MEXICANO
EXTD=
EXTT0=
EXTT1=
EXTT2=
EXTT3=
EXTT4=
EXTT5=
EXTT6=
EXTT7=
EXTT8=
EXTT9=
EXTT10=
EXTT11=
EXTT12=
EXTT13=
EXTT14=
EXTT15=
EXTT16=
EXTT17=
EXTT18=
EXTT19=
EXTT20=
EXTT21=
PLAYORDER=
